<svg width="704" height="104" xmlns="http://www.w3.org/2000/svg"><g transform="translate(0 -21)" fill="#FFF" fill-rule="evenodd"><path d="M64.5 46h10.96v40.96c0 2.133-.24 4.16-.72 6.08s-1.267 3.613-2.36 5.08-2.493 2.64-4.2 3.52c-1.707.88-3.787 1.32-6.24 1.32-1.547 0-3.227-.16-5.04-.48-1.813-.32-3.387-.773-4.72-1.36l2.4-8.96c1.387.693 2.96 1.04 4.72 1.04 2.24 0 3.667-.827 4.28-2.48.613-1.653.92-3.84.92-6.56V46zm45.2 40.96c0-1.707-.627-3.093-1.88-4.16-1.253-1.067-2.827-2.04-4.72-2.92a187.615 187.615 0 0 0-6.16-2.72 31.491 31.491 0 0 1-6.16-3.44 17.545 17.545 0 0 1-4.72-5.08c-1.253-2.027-1.88-4.613-1.88-7.76 0-2.72.453-5.08 1.36-7.08s2.2-3.667 3.88-5c1.68-1.333 3.667-2.32 5.96-2.96 2.293-.64 4.853-.96 7.68-.96 3.253 0 6.32.28 9.2.84 2.88.56 5.253 1.373 7.12 2.44l-3.44 9.2c-1.173-.747-2.933-1.427-5.28-2.04-2.347-.613-4.88-.92-7.6-.92-2.56 0-4.52.507-5.88 1.52-1.36 1.013-2.04 2.373-2.04 4.08 0 1.6.627 2.933 1.88 4 1.253 1.067 2.827 2.053 4.72 2.96a181.78 181.78 0 0 0 6.16 2.8c2.213.96 4.267 2.12 6.16 3.48a17.739 17.739 0 0 1 4.72 5.04c1.253 2 1.88 4.493 1.88 7.48s-.493 5.56-1.48 7.72-2.373 3.96-4.16 5.4c-1.787 1.44-3.947 2.507-6.48 3.2-2.533.693-5.32 1.04-8.36 1.04-4 0-7.52-.373-10.56-1.12-3.04-.747-5.28-1.493-6.72-2.24l3.52-9.36c.587.32 1.347.667 2.28 1.04.933.373 1.987.72 3.16 1.04 1.173.32 2.413.587 3.72.8 1.307.213 2.653.32 4.04.32 3.253 0 5.747-.547 7.48-1.64 1.733-1.093 2.6-2.76 2.6-5zM126.18 74c0-9.333 2.053-16.52 6.16-21.56 4.107-5.04 9.973-7.56 17.6-7.56 4 0 7.493.693 10.48 2.08s5.467 3.36 7.44 5.92c1.973 2.56 3.44 5.627 4.4 9.2.96 3.573 1.44 7.547 1.44 11.92 0 9.333-2.067 16.52-6.2 21.56-4.133 5.04-9.987 7.56-17.56 7.56-4.053 0-7.573-.693-10.56-2.08s-5.453-3.36-7.4-5.92-3.4-5.627-4.36-9.2c-.96-3.573-1.44-7.547-1.44-11.92zm11.52 0c0 2.827.24 5.427.72 7.8s1.213 4.413 2.2 6.12c.987 1.707 2.253 3.04 3.8 4 1.547.96 3.387 1.44 5.52 1.44 3.893 0 6.907-1.52 9.04-4.56 2.133-3.04 3.2-7.973 3.2-14.8 0-2.72-.227-5.253-.68-7.6-.453-2.347-1.16-4.4-2.12-6.16-.96-1.76-2.213-3.133-3.76-4.12-1.547-.987-3.44-1.48-5.68-1.48-3.893 0-6.907 1.56-9.04 4.68-2.133 3.12-3.2 8.013-3.2 14.68zm57.76-1.2l-4.4-8.8h-.4l1.28 8.8V102h-10.4V45.6h8l21.2 29.84 4.24 8.56h.4l-1.28-8.56V46h10.4v56.4h-8l-21.04-29.6zm59.52 1.28h18.8v24.64c-.853.64-1.88 1.227-3.08 1.76-1.2.533-2.48.987-3.84 1.36-1.36.373-2.773.653-4.24.84-1.467.187-2.893.28-4.28.28-3.573 0-6.853-.573-9.84-1.72a20.33 20.33 0 0 1-7.76-5.28c-2.187-2.373-3.893-5.387-5.12-9.04-1.227-3.653-1.84-7.96-1.84-12.92 0-5.173.747-9.6 2.24-13.28 1.493-3.68 3.44-6.68 5.84-9 2.4-2.32 5.093-4.013 8.08-5.08 2.987-1.067 5.973-1.6 8.96-1.6 3.2 0 5.84.173 7.92.52 2.08.347 3.84.813 5.28 1.4l-1.68 5.84c-2.56-1.227-6.213-1.84-10.96-1.84-2.24 0-4.467.387-6.68 1.16-2.213.773-4.2 2.067-5.96 3.88-1.76 1.813-3.2 4.187-4.32 7.12s-1.68 6.56-1.68 10.88c0 3.947.453 7.36 1.36 10.24s2.173 5.267 3.8 7.16a15.21 15.21 0 0 0 5.88 4.24c2.293.933 4.8 1.4 7.52 1.4 3.413 0 6.32-.667 8.72-2v-15.6l-13.12-1.6v-3.76zM285.06 46h30.48v5.92H291.7v18.32h21.84v5.92H291.7v19.92h24.24V102h-30.88V46zm52.96 19.36l-4.32-8.08h-.32l.8 8.08V102h-6.24V45.12h3.52l26.8 37.36 4.16 7.68h.4l-.88-7.68V46h6.24v56.88h-3.52l-26.64-37.52zM381.78 46h30.48v5.92h-23.84v18.32h21.84v5.92h-21.84v19.92h24.24V102h-30.88V46zm42.88.56c2.027-.373 4.36-.667 7-.88 2.64-.213 5.053-.32 7.24-.32 2.453 0 4.787.267 7 .8s4.16 1.413 5.84 2.64c1.68 1.227 3.027 2.827 4.04 4.8 1.013 1.973 1.52 4.373 1.52 7.2 0 4.373-1.2 7.92-3.6 10.64-2.4 2.72-5.44 4.533-9.12 5.44l3.84 2.96L462.34 102h-7.76l-15.44-24.16-7.84-1.2V102h-6.64V46.56zm14.4 4.56h-2.16c-.747 0-1.467.027-2.16.08-.693.053-1.347.107-1.96.16-.613.053-1.107.133-1.48.24v20.64h6.24c3.68 0 6.72-.907 9.12-2.72 2.4-1.813 3.6-4.64 3.6-8.48 0-2.88-.987-5.253-2.96-7.12-1.973-1.867-4.72-2.8-8.24-2.8zm59.84 35.36h-20.64l-5.6 15.52h-6.56l21.2-56.88h3.04L511.62 102h-6.96l-5.76-15.52zm-18.48-5.76h16.48l-6.24-17.04-2-8.48h-.08l-2 8.64-6.16 16.88zm74.8-28.8h-17.44V102h-6.64V51.92H513.7V46h41.52v5.92zM561.14 74c0-9.333 1.973-16.493 5.92-21.48 3.947-4.987 9.573-7.48 16.88-7.48 3.947 0 7.36.693 10.24 2.08s5.267 3.347 7.16 5.88c1.893 2.533 3.293 5.573 4.2 9.12.907 3.547 1.36 7.507 1.36 11.88 0 9.333-1.987 16.493-5.96 21.48-3.973 4.987-9.64 7.48-17 7.48-3.893 0-7.267-.693-10.12-2.08A19.287 19.287 0 0 1 566.7 95c-1.893-2.533-3.293-5.573-4.2-9.12-.907-3.547-1.36-7.507-1.36-11.88zm7.04 0c0 3.093.307 6.027.92 8.8.613 2.773 1.56 5.213 2.84 7.32 1.28 2.107 2.92 3.787 4.92 5.04 2 1.253 4.36 1.88 7.08 1.88 4.96 0 8.853-1.88 11.68-5.64s4.24-9.56 4.24-17.4c0-3.04-.307-5.96-.92-8.76s-1.573-5.253-2.88-7.36-2.96-3.787-4.96-5.04c-2-1.253-4.387-1.88-7.16-1.88-4.907 0-8.76 1.88-11.56 5.64-2.8 3.76-4.2 9.56-4.2 17.4zm50-27.44c2.027-.373 4.36-.667 7-.88 2.64-.213 5.053-.32 7.24-.32 2.453 0 4.787.267 7 .8s4.16 1.413 5.84 2.64c1.68 1.227 3.027 2.827 4.04 4.8 1.013 1.973 1.52 4.373 1.52 7.2 0 4.373-1.2 7.92-3.6 10.64-2.4 2.72-5.44 4.533-9.12 5.44l3.84 2.96L655.86 102h-7.76l-15.44-24.16-7.84-1.2V102h-6.64V46.56zm14.4 4.56h-2.16c-.747 0-1.467.027-2.16.08-.693.053-1.347.107-1.96.16-.613.053-1.107.133-1.48.24v20.64h6.24c3.68 0 6.72-.907 9.12-2.72 2.4-1.813 3.6-4.64 3.6-8.48 0-2.88-.987-5.253-2.96-7.12-1.973-1.867-4.72-2.8-8.24-2.8zM9.53 88.44c0-3.74-.77-6.307-2.31-7.7-1.54-1.393-3.703-2.09-6.49-2.09v-11c2.787 0 4.95-.752 6.49-2.255s2.31-3.868 2.31-7.095V35.31c0-3.96.935-7.187 2.805-9.68 1.87-2.493 4.858-3.74 8.965-3.74h13.2v12.1H29c-1.98 0-3.428.513-4.345 1.54-.917 1.027-1.375 2.713-1.375 5.06v21.45c0 3.227-.77 5.665-2.31 7.315-1.54 1.65-3.337 2.658-5.39 3.025v1.1c1.98.293 3.758 1.393 5.335 3.3 1.577 1.907 2.365 4.4 2.365 7.48v21.34c0 2.347.44 4.033 1.32 5.06.88 1.027 2.383 1.54 4.51 1.54h5.39v12.1H21.3c-3.813 0-6.728-1.155-8.745-3.465-2.017-2.31-3.025-5.592-3.025-9.845V88.44zm685.18-30.69c0 3.74.77 6.307 2.31 7.7 1.54 1.393 3.703 2.09 6.49 2.09v11c-2.787 0-4.95.752-6.49 2.255s-2.31 3.868-2.31 7.095v22.99c0 3.96-.972 7.187-2.915 9.68-1.943 2.493-4.968 3.74-9.075 3.74h-12.87v-12.1h5.5c1.98 0 3.428-.495 4.345-1.485.917-.99 1.375-2.695 1.375-5.115V84.15c0-3.227.77-5.665 2.31-7.315 1.54-1.65 3.337-2.658 5.39-3.025v-1.1c-1.98-.293-3.758-1.393-5.335-3.3-1.577-1.907-2.365-4.4-2.365-7.48V40.59c0-2.273-.44-3.942-1.32-5.005-.88-1.063-2.383-1.595-4.51-1.595h-5.39v-12.1h13.09c3.887 0 6.82 1.155 8.8 3.465 1.98 2.31 2.97 5.592 2.97 9.845v22.55z"/></g></svg>